/* XPM */
static char *bar[] = {
/* columns rows colors chars-per-pixel */
"20 48 22 1 ",
"  c #CECECE",
". c #CFCFCF",
"X c #D0CFCF",
"o c #CFD0CF",
"O c #D0D0CF",
"+ c #CFCFD0",
"@ c #D0CFD0",
"# c #CFD0D0",
"$ c #D3D3D3",
"% c #D4D3D3",
"& c #D3D4D3",
"* c #D4D4D3",
"= c #D3D3D4",
"- c #D4D4D4",
"; c #D5D6D6",
": c #D7D7D7",
"> c #D8D7D7",
", c #D8D8D7",
"< c #D8D7D8",
"1 c #D8D8D9",
"2 c #D9DAD9",
"3 c #DADADA",
/* pixels */
"33333333333333333333",
"33333333333333333333",
"333333333333333313:3",
"3333333<33<3<3333<33",
"33<33<333<33:3331313",
":<33:33<3<3<33>33131",
"<33<3::<<3>3><3>:111",
"::<<:3113<<<3<::2311",
"33::3::<:<:3<3:31:3,",
":>:3:3:3,31::3:<:3::",
">>:3,,,,,::3<>::3:::",
">:::,,,:,:::::::::::",
"::::::::::3:::::::::",
"::::::::::::$:::::::",
":::::::::,::3>::::::",
"::=:::$::*:*$::::*::",
"$:::::$:::::::::::&:",
"::$:%$::%:=:*%:**:::",
"$:*::::::=:%:*::&:&:",
"$::$:$&:=:%:%:*:&$::",
":::$:$:$:$:$:$:$:&:$",
"$%%$$:=:=:$:%:$:::$:",
":=<::$=::*:$$$:$$$$:",
"$:$$$:==$:*%:$$:$:=&",
"$=$:$:$$$*:%:$:$:=:=",
"$:$$$$:$$:$$$$**$$$=",
"$$$:$$$$%%&&&&%%$$==",
"$:$o$:#$%%&&&&%$=$==",
"===+:$&#$$$$$$$%==$=",
"$=&=.$$:$$$$$$$$$$$$",
"#&==&..=$+$$$$$$$$$$",
"&&:&+:#&$$.$$$$+$+$$",
"##&$=$#$#$$@$#$$$$$$",
"$$$##$=$#$$$$$+$+$.$",
"#&$##=#$$$$@$#$#o$o$",
"=##$=#=#$+@$#$#$$.$$",
"#=$+$++$O$$O$#$#$.$$",
"##+=$#$+$OO$#$$#.$.o",
"$#=#+=+=OO$OX$.$$o$o",
"##++++++$OOOOO@.o...",
"....$o..OO@$.X$.$...",
"+$+$.oo.OOXXXXX.oo.$",
"##...o..OO$XX.O$o..o",
"#+..o...OO..X.......",
"................o o ",
"................   o",
"....  ..............",
"....   .......... .."
};
