/* XPM */
static char *close[] = {
/* columns rows colors chars-per-pixel */
"32 32 121 2 ",
"   c #DC4141",
".  c #DC4242",
"X  c #DB4747",
"o  c #DC4444",
"O  c #DC4545",
"+  c #DC4747",
"@  c #DB4A4A",
"#  c #DC4A4A",
"$  c #DB4D4D",
"%  c #DB4E4E",
"&  c #DB4F4F",
"*  c #DB5050",
"=  c #DA5252",
"-  c #DB5252",
";  c #DB5353",
":  c #DB5656",
">  c #DA5B5B",
",  c #DA5C5C",
"<  c #DB5C5C",
"1  c #DB5D5D",
"2  c #D96767",
"3  c #DA6767",
"4  c #D96868",
"5  c #DA6868",
"6  c #D96C6C",
"7  c #D96E6E",
"8  c #D86F6E",
"9  c #DA6F6F",
"0  c #D77777",
"q  c #D87272",
"w  c #D87474",
"e  c #D87575",
"r  c #DA7575",
"t  c #D87979",
"y  c #DA797A",
"u  c #D78282",
"i  c #D78383",
"p  c #D68686",
"a  c #D78787",
"s  c #D98383",
"d  c #D88483",
"f  c #D88384",
"g  c #D98585",
"h  c #DA8484",
"j  c #D98787",
"k  c #D68C8C",
"l  c #D98888",
"z  c #D69393",
"x  c #D79595",
"c  c #D89595",
"v  c #D99696",
"b  c #D59999",
"n  c #D59A9A",
"m  c #D59D9D",
"M  c #D89B9B",
"N  c #D89C9C",
"B  c #D5A2A1",
"V  c #D5A4A4",
"C  c #D4A6A6",
"Z  c #D8A4A4",
"A  c #D5A8A7",
"S  c #D7A8A8",
"D  c #D3AEAE",
"F  c #D4AFAE",
"G  c #D8A9A9",
"H  c #D3B2B2",
"J  c #D3B3B3",
"K  c #D5B6B7",
"L  c #D5B7B7",
"P  c #D8B1B1",
"I  c #D3B9B9",
"U  c #D6B8B8",
"Y  c #D4BBBB",
"T  c #D6BCBB",
"R  c #D3BEBE",
"E  c #D4BFBF",
"W  c #D9B9BA",
"Q  c #D8BABA",
"!  c #D9BDBD",
"~  c #D3C0BF",
"^  c #D3C0C0",
"/  c #D6C2C1",
"(  c #D2C4C4",
")  c #D3C7C7",
"_  c #D4C5C5",
"`  c #D8C3C3",
"'  c #D3C8C7",
"]  c #D1CACA",
"[  c #D2CBCA",
"{  c #D3CBCB",
"}  c #D7CACA",
"|  c #D7CBCB",
" . c #D2CFCF",
".. c #D6CECE",
"X. c #D8C9C9",
"o. c #D2D0CF",
"O. c #D7D0CF",
"+. c #D8D0CF",
"@. c #D2CFD0",
"#. c #D7CFD0",
"$. c #D0D0D0",
"%. c #D0D1D0",
"&. c #D2D2D1",
"*. c #D1D2D3",
"=. c #D7D0D0",
"-. c #D3D4D3",
";. c #D7D4D3",
":. c #D3D3D4",
">. c #D1D4D4",
",. c #D3D5D5",
"<. c #D3D7D7",
"1. c #D7D7D7",
"2. c #D8D4D4",
"3. c #D8D7D7",
"4. c #D4D8D7",
"5. c #D7D8D7",
"6. c #D8D8D7",
"7. c #D7D7D8",
"8. c #D7D8D8",
"9. c #D8D8D8",
"0. c #D8DADB",
/* pixels */
"9.9.9.9.9.9.9.9.9.9.9.9.9.9.9.9.9.9.9.9.9.9.9.9.9.9.9.9.9.9.9.9.",
"9.9.9.9.9.9.9.9.9.9.9.9.0.9.0.8.0.0.0.9.9.9.9.9.9.9.9.9.6.9.9.9.",
"9.9.7.7.3.3.1.1.9.9.6.3.9.0.0.8.0.0.0.0.6.9.3.3.9.9.9.6.3.9.9.9.",
"9.9.7.7.3.3.7.1.9.=.X.` / W W W W W W ! ` X.+.3.9.9.9.9.3.6.6.9.",
"5.1.1.1.1.1.8.1.X.! G v g y r r e e y g v G ! | 1.9.9.7.3.3.1.1.",
"1.1.1.1.1.1.../ P M g 9 1 * * * $ * * 1 7 g N P / ..1.7.3.3.1.1.",
"1.1.1.5.5.+.! Z g w 1 ; # O O O O O O $ * 1 q l Z ! ..9.1.1.1.1.",
"1.1.1.1.;.` Z g 5 * O   o     o   O       O * 5 g Z / =.1.1.1.1.",
"1.1.1.&.| P l 3 - O O   O   O O O   O     O # * 5 l P | ..1.1.1.",
",.1.1...U M q - O     o             O     O   O - 7 M W +.1.1.,.",
"1.1.1.) S d > X O   O     O O   O     O O     O O , g A | 7.1.1.",
":.,.1./ x 7 * . o o   O o   O O O     O   O O     - 7 v ^ ,.1.:.",
"1.,.<.Y g , @ .       O   O         O     O O     # > i U 8.8.,.",
"1.,.8.U t - X .   O O       O   O O O   O       O X - y U 8.,.7.",
":.7.,.L 0 $ X       O   O   O o O     O O   O     O $ e I ,.,.,.",
":.,.8.L e $ X   O O   O   O O       O     O     O O $ e K ,.,.1.",
",.7.,.K q $ X . . o o . o . o o O o   O O   O     O $ e K 1.,.1.",
",.,.<.K w - X . . . o o o o . . O           O   O O $ e K 3.,.&.",
"-.,.,.U t - X . o o o . . o . o   O O     O O     # * y U ,.,.,.",
"-.,.,.K s > @ . . . o . o . . . o O   O o   O     # 1 g Y ,.,.;.",
"&.,.,.^ x 8 $ . . o . o . X   X   O o   O   O   . - 7 x ^ ,.,.&.",
"&.,.,.) C i , X o . o . .   . .       O   O   O X , i S ) ,.5.&.",
":.:.&.{ L b 8 - X . . o . X X . O O O O       # - 7 n U { ,.&.&.",
"&.&.&. .{ D p 2 - X o . . .   .         o O O * 3 p F ' o.-.-.&.",
"&.:.&.&.&.R V p 6 : X . . .     . . . . . X - 2 i B R %.&.&.-.&.",
"&.&.&.&.&. .R V k q , $ @ X X X X X X @ * , 8 i B I { -.&.&.&.&.",
"&.&.&.&.&.&.{ ^ H m i 8 > - $ @ @ $ $ , 8 i b D R { o.-.&.&.&.%.",
"&.&.&.:.&.&.&.&.) R C z i 0 0 q w w 0 i z V I )  .&.&.&.&.&.&.%.",
"&.&.&.$.&.*.&.*.&.{ ( R I J J J J J J I R ( { $.*.&.*.&.%.*.%.@.",
"$.$.$.*.%.@.$.%.%.%.*.>.,.>.>.>.*.>.>.>.*.*.%.$.%.@.$.$.%.&.*.*.",
"$.$.$.$.%.*.$.$.%.*.*.%.*.>.*.%.*.*.>.*.*.*.*.$.$.@.%.%.$.$.%.&.",
"$.$.$.$.*.@.$.$.%.%.%.%.%.%.$.$.$.%.*.%.@.$.$.$.$.%.@.@.$.$.$.%."
};
