/* XPM */
static char *max[] = {
/* columns rows colors chars-per-pixel */
"32 32 118 2 ",
"   c #51C02E",
".  c #53C02F",
"X  c #53C030",
"o  c #55C033",
"O  c #56C033",
"+  c #56C034",
"@  c #56C035",
"#  c #58C136",
"$  c #59C138",
"%  c #5CC13B",
"&  c #5CC13C",
"*  c #5DC13D",
"=  c #5EC13E",
"-  c #5EC23E",
";  c #60C241",
":  c #61C242",
">  c #62C243",
",  c #64C346",
"<  c #69C34C",
"1  c #6AC34E",
"2  c #69C44C",
"3  c #72C458",
"4  c #73C659",
"5  c #77C55F",
"6  c #79C560",
"7  c #79C561",
"8  c #7AC662",
"9  c #7AC762",
"0  c #7DC666",
"q  c #7EC767",
"w  c #7EC668",
"e  c #7FC768",
"r  c #80C668",
"t  c #80C76A",
"y  c #82C76C",
"u  c #83C76D",
"i  c #83C86E",
"p  c #8BC778",
"a  c #8CC878",
"s  c #8CC879",
"d  c #8EC97B",
"f  c #8ECA7A",
"g  c #8EC87C",
"h  c #8FC87C",
"j  c #90CA7D",
"k  c #90CB7E",
"l  c #93C983",
"z  c #9AC98B",
"x  c #9BCA8C",
"c  c #9CCB8D",
"v  c #9CCC8D",
"b  c #9DCD8E",
"n  c #9FCB92",
"m  c #A0CB92",
"M  c #A1CD93",
"N  c #A2CB96",
"B  c #A2CE94",
"V  c #A7CC9B",
"C  c #AACE9E",
"Z  c #ABCCA1",
"A  c #ADCFA3",
"S  c #B2CDA9",
"D  c #B2CEA9",
"F  c #B5CEAD",
"G  c #AFD0A3",
"H  c #AED0A4",
"J  c #B5D0AC",
"K  c #B5D1AC",
"L  c #B7CDB0",
"P  c #B8CEB1",
"I  c #BACFB3",
"U  c #BBCEB6",
"Y  c #BCCEB7",
"T  c #BECFB8",
"R  c #BAD0B3",
"E  c #BDD2B6",
"W  c #BDD3B6",
"Q  c #BFD3B9",
"!  c #BFD2BA",
"~  c #C0CFBB",
"^  c #C0D3B9",
"/  c #C0D3BA",
"(  c #C2D0BE",
")  c #C3D2BF",
"_  c #C6CFC2",
"`  c #C5D3C1",
"'  c #C5D4C1",
"]  c #C7D1C4",
"[  c #C9D1C6",
"{  c #CBD5C7",
"}  c #CBD0C9",
"|  c #CBD1CA",
" . c #CCD2CB",
".. c #CBD5C8",
"X. c #CCD5CA",
"o. c #CFD1CE",
"O. c #D0D2CF",
"+. c #D0D6CE",
"@. c #D1D6CE",
"#. c #D0D0D0",
"$. c #D1D1D0",
"%. c #D0D0D1",
"&. c #D2D0D3",
"*. c #D3D3D2",
"=. c #D3D6D2",
"-. c #D4D6D3",
";. c #D5D3D5",
":. c #D4D4D4",
">. c #D4D7D4",
",. c #D5D4D7",
"<. c #D7D7D7",
"1. c #D8D7D7",
"2. c #D8D8D7",
"3. c #D7D7D8",
"4. c #D8D7D8",
"5. c #D8D8D8",
"6. c #DAD8DA",
"7. c #DAD8DB",
/* pixels */
"5.5.5.5.5.5.5.5.5.5.5.5.5.5.5.5.5.5.5.5.5.5.5.5.5.5.5.5.5.5.5.5.",
"5.5.3.5.5.5.5.5.3.3.5.5.7.5.5.7.7.7.7.5.5.5.5.5.5.5.5.2.5.5.5.5.",
"5.5.3.3.1.1.<.2.3.3.5.5.7.7.7.5.7.7.7.7.2.2.5.5.5.5.5.5.2.2.5.5.",
"5.5.3.3.1.1.3.<.>.>.X.' / W W W W W / / ' X.@.>.5.5.5.5.1.2.5.2.",
"<.<.<.<.<.<.4.-.X./ H b d i e 0 e t i d b H / X.<.1.1.1.1.<.<.<.",
"<.<.<.<.1.<.+.' K M g 9 2 : = = = = : 2 9 g M K ) +.<.1.1.1.<.<.",
"<.<.<.<.4.+.! C f 9 < = $ + o o o o + + - 2 9 f C ^ +.4.<.<.<.<.",
"<.<.<.<.-.` C d 4 ; o   . . X . . X . . . o > 4 d C ) *.<.<.<.<.",
"<.<.<.*...J g 4 : + X X X X . . . . . . . . o : 4 j J X.*.>.5.4.",
"<.<.<.| ! M 7 : + . X X X X . . . . . O . . . o : 7 M W  .2.<.1.",
";.;.<.` A s 1 + X . X X X X X X . O . . . . . O o 2 d G [ ;.<.<.",
"<.3.3.` v 7 =   X X X X X X X X . . . . . O . . . = 7 b ` <.<.*.",
";.<.3.T s 1 $   X X X X X X X X . . o . . . . . . + 1 d ! <.;.3.",
";.<.3.I u : + . X X X X X X X o . . . . . O . . . o ; u I <.3.;.",
"*.3.3.I w = + . X . X X X X X X o   . . . . O . . O = w I ,.;.*.",
";.*.,.I w = o . . . X X X X X X   . . o . . . . . O = w I 3.*.<.",
"*.3.<.L w = O . . . o . . . . o o   . o   . o . . o = w R <.;.*.",
"<.;.;.I w = O   . . . . o . . .   o .   o .   . . o = r R <.;.<.",
"*.*.;.I u : O . . . . . . . . . o . o   o     o . + : r I <.;.*.",
"*.,.<.Y p 1 $   . o o . . . . .     o . .   o .   $ 1 s Y ;.<.*.",
"*.,.,.T z 7 =   . . . . . . . o . o   o   . .     & 7 v ~ ,.;.*.",
"*.*.,.[ Z p 1 o . . . . o . . . .   o   o .   + o 1 p A _ ,.;.*.",
"*.*.*. .T n 6 : O   . . . . . . o o   o       + : 5 n T  .*.*.*.",
"#.;.%.*._ D h 3 , $ o . . . . .   .   .   o + : 3 j D [ *.*.*.*.",
"#.;.;.O.O.~ Z h 5 , O   o   . .   o X     o ; 3 s V ~ O.#.#.;.*.",
"*.#. .;.;.} T Z l 0 1 = $ O O o o o O $ % 1 6 h V Y  .*.;.*.#.#.",
"#.*.#.*.#. . .` F N h 7 < : = = % % ; 1 6 s m S ~  .*.#.#.O.;.#.",
";.#.#.#.;.%.;.#.} Y Z z p 0 0 0 w w w p z Z U [  .;.#.#.*.#.;.O.",
" .#.#.#.#.,.#.#.#.} _ T Y P P P F P P I ~ _ } #.$.$.$.$.#.#.#.#.",
"#.#.;.%.#. .#.&.#.#.;.#.#.&.;.&.;.&.;.&.#.;.$.&.$.$.$.#.;.#.$.O.",
"&.#.%.%.#.#.#.#.;.#.#.#.&.;.;.#.&.&.&.&.&.&.$.$.$.$.#.#.#.#.$.;.",
"#.#.*.%.#.%.&.#.#.*.#.#.#.#.#.#.#.#.#.#.&.#.$.$.$.$.#.#.#.#.#.#."
};
