/* XPM */
static char *min[] = {
/* columns rows colors chars-per-pixel */
"32 32 122 2 ",
"   c #E3B537",
".  c #E3B538",
"X  c #E3B539",
"o  c #E3B53A",
"O  c #E3B63B",
"+  c #E2B53C",
"@  c #E3B53C",
"#  c #E2B63D",
"$  c #E3B63D",
"%  c #DFBA54",
"&  c #DFBC5F",
"*  c #E2B741",
"=  c #E1B745",
"-  c #E2B744",
";  c #E2B845",
":  c #E2B847",
">  c #E1B849",
",  c #E1B84B",
"<  c #E2B84A",
"1  c #E1B94E",
"2  c #E0BA53",
"3  c #E1BB54",
"4  c #E0BA55",
"5  c #DEBC60",
"6  c #DDBD66",
"7  c #DEBD67",
"8  c #DFBF67",
"9  c #DFBF68",
"0  c #DEBF6D",
"q  c #DCBE6E",
"w  c #DCBF71",
"e  c #E0BD60",
"r  c #DFC06E",
"t  c #DEC06F",
"y  c #DEC173",
"u  c #DEC273",
"i  c #DBC27E",
"p  c #DDC37E",
"a  c #DEC37F",
"s  c #DAC280",
"d  c #DDC480",
"f  c #DDC482",
"g  c #DAC487",
"h  c #D9C48F",
"j  c #D7C695",
"k  c #DAC590",
"l  c #D9C690",
"z  c #DBC791",
"x  c #D8C796",
"c  c #DCC892",
"v  c #DBC897",
"b  c #D7C799",
"n  c #D7C89E",
"m  c #DCC998",
"M  c #D7C9A1",
"N  c #D6C8A3",
"B  c #D7CAA4",
"V  c #DACBA1",
"C  c #D9CBA5",
"Z  c #DBCCA6",
"A  c #D5CBAB",
"S  c #D6CBAB",
"D  c #D6CBAC",
"F  c #D5CBAF",
"G  c #D9CDAE",
"H  c #DACEAE",
"J  c #D5CBB1",
"K  c #D4CBB3",
"L  c #D7CDB4",
"P  c #D6CDB5",
"I  c #D4CCB7",
"U  c #D5CDB7",
"Y  c #D4CCB9",
"T  c #D5CDBA",
"R  c #D3CDBC",
"E  c #D3CDBD",
"W  c #D4CEBE",
"Q  c #DAD0B7",
"!  c #D7D0BA",
"~  c #D8D0B9",
"^  c #D8D1BB",
"/  c #DAD1BC",
"(  c #D3CEC3",
")  c #D7D0C0",
"_  c #D3D0C6",
"`  c #D6D2C7",
"'  c #D8D2C1",
"]  c #D9D2C2",
"[  c #D2D0C9",
"{  c #D2D0CA",
"}  c #D3D2CB",
"|  c #D3D2CF",
" . c #D6D4CD",
".. c #D6D4CE",
"X. c #D7D5CF",
"o. c #D9D4C8",
"O. c #D8D4C9",
"+. c #D8D4CA",
"@. c #D8D6CF",
"#. c #D0D0D0",
"$. c #D0D0D1",
"%. c #D0D1D1",
"&. c #D1D0D2",
"*. c #D2D2D3",
"=. c #D3D2D3",
"-. c #D3D4D3",
";. c #D7D5D2",
":. c #D7D6D3",
">. c #D1D1D4",
",. c #D3D3D5",
"<. c #D3D4D5",
"1. c #D3D4D7",
"2. c #D3D5D7",
"3. c #D6D5D6",
"4. c #D7D7D7",
"5. c #D8D7D4",
"6. c #D8D7D7",
"7. c #D8D8D7",
"8. c #D7D7D8",
"9. c #D7D9DA",
"0. c #D7D8DB",
"q. c #D8D8D8",
/* pixels */
"q.q.q.q.q.q.q.q.q.q.q.q.q.q.q.q.q.q.q.q.q.q.q.q.q.q.q.q.q.q.q.q.",
"q.q.q.q.q.q.q.q.q.q.q.q.q.q.q.q.0.q.0.0.q.q.q.q.q.q.q.q.q.q.q.q.",
"q.q.8.8.6.6.4.8.7.7.q.q.0.q.0.q.9.q.0.q.7.7.7.7.q.q.q.7.7.7.q.q.",
"q.q.8.4.6.6.4.4.5.6.O./ / ~ ~ ~ / ~ / / ] o.@.7.q.q.q.q.7.7.7.q.",
"4.4.4.4.4.4.8.4.O./ Z c a y r t r r u a c Z ~ O.6.6.6.6.7.7.6.6.",
"4.4.4.4.4.4.@.' G m d r 3 , ; ; < ; < 3 r a m Q ) ..4.6.7.7.6.6.",
"4.4.4.4.4.@.~ V g t 3 ; * $ $ . X X $ * ; 3 e d V ~ @.6.4.4.4.4.",
"4.4.4.4.:.' V d 3 , $ . . . $ . X X X X   X 1 e p V W ;.4.4.4.4.",
"4.4.<.:.O.G d % , $ O O . . O .     O     O $ > e d G O.:.4.4.4.",
"<.4.4. .~ v 9 , - O     . . . . O O     O     O , e m ~ ..4.4.4.",
"<.4.<.` C p % $ O   O   . O O .   O   O   O   O * 3 d C O.,.,.,.",
"4.<.8.) z 8 -     O   O . . . . O   O   O   O   O - e v ( 6.,.6.",
",.4.<.~ p % O O   O . O . . O .   O   O O   O   O * % p ~ ,.6.4.",
"<.<.9.P y , O O       O . . . .   O O         O   $ > u L 6.,.4.",
"4.<.8.P t ; $   O   O . O . . . O     O   O   O   O - u P 8.,.4.",
",.,.<.P t - $ O   O   . . . O .   O     O   O   O O * u P <.,.&.",
"&.4.4.L 0 * O   O   O   O O O   O O   O   O       $ - 0 P ,.,.,.",
"4.,.4.T w = O       O         O     O   $     $   $ - 0 P 6.,.6.",
"&.,.<.Y w , $ O   O   O   O   O O     O $     $   O , w P ,.,.,.",
"&.,.<.) w % $     O O   O     O   O         O     - 3 p T ,.,.4.",
"&.4.,.W h 8 > O   O         O O O   O   O . $     - 8 z / 2.,.,.",
";.,.,.( A u % O   O   O O O     O     O O       $ % i B ( ,.,.,.",
"&.;.&.[ Y j 6 , O O   O O   O O   O     . O   $ , 8 x L } -.,.&.",
",.&.,.&.( F i 5 = O O           O   O       $ > & s A _ | 4.&.&.",
"&.&.&.&.-.W n s 6 , *   + + +   O     O   O , & i n W | #.,.&.-.",
":.&.-.#.&.} Y B g q % = + + + + O * + * = % 8 s n I [ -.<.&.-.&.",
"&.| &.| #.&.} ^ F b w 6 % , - - - - 1 % 8 i j A W } | &.#.| | #.",
"| &.&.| #.#.,.>.{ R A j i q q q q q w q h B Y ( | &.#.#.-.-.&.#.",
"#.&.-.#.-.<.#.#.-.[ ( ! Y J J J J J J Y W ( } #.#.&.-.| #.#.-.#.",
"#.#.#.&.#.#.-.#.#.#.#.#.>.>.>.>.#.#.>.>.#.<.#.&.| #.#.#.#.#.&.#.",
"#.#.#.#.#.#.#.#.#.#.,.#.#.#.,.#.$.,.$.$.#.#.#.| #.#.#.#.#.#.#.&.",
"#.#.#.#.#.#.#.#.#.#.#.>.#.,.#.#.$.$.$.$.#.#.#.#.| #.#.#.#.#.#.&."
};
