/* XPM */
static char *min_pressed[] = {
/* columns rows colors chars-per-pixel */
"32 32 82 1 ",
"  c #7F7F7F",
". c #808080",
"X c #818181",
"o c #828282",
"O c #838383",
"+ c #848484",
"@ c #868686",
"# c #878787",
"$ c #888888",
"% c #898989",
"& c #8A8A8A",
"* c #8B8B8B",
"= c #8E8E8E",
"- c #8E8E8F",
"; c #8F8F8F",
": c #949494",
"> c #959595",
", c #979797",
"< c #989999",
"1 c #999999",
"2 c #9A9A9A",
"3 c #9C9C9C",
"4 c #9D9D9D",
"5 c #9E9F9F",
"6 c #9F9F9F",
"7 c #A0A0A0",
"8 c #A4A5A5",
"9 c #A5A5A5",
"0 c #A6A6A6",
"q c #A7A7A7",
"w c #A8A8A8",
"e c #AEAEAE",
"r c #AFAFAF",
"t c #B0B0B0",
"y c #B1B0B1",
"u c #B1B2B1",
"i c #B3B3B3",
"p c #B4B4B4",
"a c #B6B6B6",
"s c #B7B7B7",
"d c #B9BAB9",
"f c #B9B9BA",
"g c #BBBBBB",
"h c #BCBCBC",
"j c #BDBEBD",
"k c #BFBFBF",
"l c #C0C0C0",
"z c #C1C1C1",
"x c #C2C3C2",
"c c #C3C3C3",
"v c #C3C4C4",
"b c #C4C4C4",
"n c #C6C7C6",
"m c #C7C7C7",
"M c #C7C8C7",
"N c #C7C7C8",
"B c #C7C8C8",
"V c #C8C8C8",
"C c #C9CAC9",
"Z c #CBCBCB",
"A c #CCCBCB",
"S c #CBCBCC",
"D c #CECECD",
"F c #CECECF",
"G c #CFCFCF",
"H c #CFD0CF",
"J c #D0D0CF",
"K c #CFD0D0",
"L c #D2D2D3",
"P c #D4D3D3",
"I c #D3D4D3",
"U c #D3D3D4",
"Y c #D4D4D4",
"T c #D4D5D4",
"R c #D7D7D7",
"E c #D8D7D7",
"W c #D8D8D7",
"Q c #D7D7D8",
"! c #D8D7D8",
"~ c #D7D8D8",
"^ c #D8D8D8",
"/ c #D9D9DA",
/* pixels */
"^^^^^^^^^^^^^^^^^^^^^^^^^^^^^^^^",
"^^^^!^^^~R^^^^^^///^^^^^^^^^^^^^",
"^^QQEER~RRRR/^^^~~//^^!E^!^WE!!!",
"^^QQEERRLRFFCBCvBNNSAFLQ!^^WEE!!",
"RRRRRRERFBgtw755557qtkNFRE!WERRR",
"RRRRRRLCxpq<=$++++$=<qixCLE!ERRR",
"RRRR^Pmfw<:++XXXXXX++=<wfmF!RRRR",
"RRRRRCfq>#X  X..XX .XX$>qfAPRRRR",
"RRRLFkw>$XX ..........X$>wxFPRPR",
"RIRLmp<$+. X......... XX$<pBLRRR",
"LRRCfw=X................X=qgARPR",
"RRRCt<$  ...............X$<tCREP",
"RRRmq=+X................X+=qmRRR",
"ILRv5$X ......X......... X$5xERL",
"LRRx5+X ................XX$5xRPP",
"L^Rk5+XX................ X+<xLRR",
"PWWk4#...................X+5xRLP",
"PPPb4#...........X.......X+5xREP",
"RPPb5#+..................X$3xPPR",
"PPPb9;+..................+=qmRPL",
"PPPVt,#............... . #<tmELL",
"PPPZs9;...............XX =qfCPII",
"LLPHbt4#...............X$<tmCLLI",
"LLLIAjw:#+............X$:qkAJRLL",
"LLILJVsq,*O...........#:qpmFJPJR",
"HLJIIAbsw4;#+.O..O.+#;<wpbJPPJPF",
"LIIILHHCks9<=##+###;<qtjVJJRJPJP",
"HHHJHLIJAbst94444449esbAJJJJRJJP",
"IJLJLJIJJJAVbkxkkkkbVAFJJPPJHPHI",
"JLJJHLJLJPJJJJPRJPJPJPJJJJJPHHJJ",
"LJJLJLJJPJPJRJPJJPPJPJHHJJJJLJPJ",
"HLLJLJJLJJJJPJJJJJJPJPHHRJJJJJJL"
};
