/* XPM */
static char * bar_xpm[] = {
"10 24 67 1",
" 	c None",
".	c #DADADA",
"+	c #DADAD9",
"@	c #D9D9DA",
"#	c #D9DADA",
"$	c #DAD9DA",
"%	c #D9D9D9",
"&	c #D9DAD9",
"*	c #D9D8D8",
"=	c #D8D8D9",
"-	c #D8D8D8",
";	c #D9D8D9",
">	c #D8D7D7",
",	c #D8D8D7",
"'	c #D8D7D8",
")	c #D7D7D7",
"!	c #D6D6D6",
"~	c #D6D6D7",
"{	c #D6D7D6",
"]	c #D6D7D7",
"^	c #D7D6D7",
"/	c #D7D6D6",
"(	c #D5D5D6",
"_	c #D6D5D6",
":	c #D5D6D5",
"<	c #D5D5D5",
"[	c #D6D5D5",
"}	c #D6D6D5",
"|	c #D5D6D6",
"1	c #D5D5D4",
"2	c #D4D4D5",
"3	c #D5D4D4",
"4	c #D4D5D5",
"5	c #D4D4D4",
"6	c #D3D3D4",
"7	c #D3D4D3",
"8	c #D3D3D3",
"9	c #D4D3D3",
"0	c #D4D4D3",
"a	c #D2D3D2",
"b	c #D3D2D2",
"c	c #D2D3D3",
"d	c #D2D2D3",
"e	c #D3D2D3",
"f	c #D2D2D2",
"g	c #D1D1D2",
"h	c #D1D2D2",
"i	c #D2D2D1",
"j	c #D2D1D2",
"k	c #D1D1D1",
"l	c #D0D0D1",
"m	c #D1D1D0",
"n	c #D1D0D0",
"o	c #D0D1D1",
"p	c #D0D0D0",
"q	c #CFD0D0",
"r	c #D0CFD0",
"s	c #CFD0CF",
"t	c #D0D0CF",
"u	c #D0CFCF",
"v	c #CFCFD0",
"w	c #CFCFCF",
"x	c #CFCFCE",
"y	c #CECFCE",
"z	c #CECECE",
"A	c #CFCECE",
"B	c #CECFCF",
"..........",
"+@#$.%#+#&",
"%%%%%%%%%%",
"*=*-=*;*;=",
"----------",
">-,,,-'>->",
"))))))))))",
"!~{]^!{//!",
"!!!!!!!!!!",
"(_::(<[}(|",
"<<<<<<<<<<",
"1<<2<13434",
"5555555555",
"6786907966",
"8888888888",
"abcdccabbe",
"ffffffffff",
"ghghijhhkf",
"kkkkkkkkkk",
"llllmmmnop",
"pppppppppp",
"qrqstrupvw",
"wwwwwwwwww",
"xyzyAywBxy"};
