/* XPM */
static char * close_xpm[] = {
"16 16 66 1",
" 	c None",
".	c #D8D8D8",
"+	c #D7D7D8",
"@	c #D8D7D7",
"#	c #D7D7D7",
"$	c #D7D8D8",
"%	c #D7D8D7",
"&	c #D8D7D8",
"*	c #D8D8D7",
"=	c #D7BDBD",
"-	c #D98C8C",
";	c #DB5E5E",
">	c #DB5555",
",	c #D6D7D7",
"'	c #D7D7D6",
")	c #D8A5A5",
"!	c #DA6363",
"~	c #DC4343",
"{	c #DA6464",
"]	c #D7D6D7",
"^	c #D6D6D6",
"/	c #D7BCBC",
"(	c #D5D5D5",
"_	c #D5D5D6",
":	c #D88B8B",
"<	c #D5D6D5",
"[	c #D6D5D6",
"}	c #DA5E5E",
"|	c #D4D4D5",
"1	c #D4D5D4",
"2	c #DA5555",
"3	c #D4D4D4",
"4	c #D3D4D3",
"5	c #D3D3D3",
"6	c #D3D4D4",
"7	c #D78A8A",
"8	c #D78B8B",
"9	c #D2D2D3",
"0	c #D3D2D3",
"a	c #D3BABA",
"b	c #D96363",
"c	c #D3BBBA",
"d	c #D3D3D2",
"e	c #D2D2D2",
"f	c #D5A6A6",
"g	c #D96A6A",
"h	c #D5A2A2",
"i	c #D1D2D1",
"j	c #D1D1D1",
"k	c #D2BDBD",
"l	c #D7898A",
"m	c #DA5D5D",
"n	c #DA5454",
"o	c #D95D5D",
"p	c #D78989",
"q	c #D2BABA",
"r	c #D2D2D1",
"s	c #D2D1D1",
"t	c #D1D1D2",
"u	c #D0D0D1",
"v	c #D0D0D0",
"w	c #D0D1D1",
"x	c #D1D1D0",
"y	c #D1D0D1",
"z	c #D0D1D0",
"A	c #D1D0D0",
"................",
".+@#$+%+&&@*+*@+",
"####=-;>>;-=####",
",#')!~~~~~~{)]']",
"^^/{~~~~~~~~{/^^",
"(_:~~~~~~~~~~:<[",
"((}~~~~~~~~~~}((",
"|12~~~~~~~~~~>13",
"332~~~~~~~~~~233",
"45}~~~~~~~~~~}63",
"557~~~~~~~~~~855",
"90ab~~~~~~~~bc5d",
"eeefg~~~~~~bheee",
"iijeklmnnopqrist",
"jjjjjjjjjjjjjjjj",
"uujvwxjxxyyzxAvj"};
