/* XPM */
static char * max_xpm[] = {
"16 16 67 1",
" 	c None",
".	c #D8D8D8",
"+	c #D7D7D8",
"@	c #D8D7D7",
"#	c #D7D7D7",
"$	c #D7D8D8",
"%	c #D7D8D7",
"&	c #D8D7D8",
"*	c #D8D8D7",
"=	c #C0D3BA",
"-	c #94CB82",
";	c #6BC44F",
">	c #63C244",
",	c #D6D7D7",
"'	c #D7D7D6",
")	c #AACE9F",
"!	c #70C455",
"~	c #53C030",
"{	c #70C555",
"]	c #AACF9E",
"^	c #D7D6D7",
"/	c #D6D6D6",
"(	c #BFD2B9",
"_	c #D5D5D5",
":	c #D5D5D6",
"<	c #93CA81",
"[	c #93CA82",
"}	c #D5D6D5",
"|	c #D6D5D6",
"1	c #6BC34F",
"2	c #D4D4D5",
"3	c #D4D5D4",
"4	c #D4D4D4",
"5	c #D3D4D3",
"6	c #D3D3D3",
"7	c #6BC34E",
"8	c #D3D4D4",
"9	c #92C980",
"0	c #93C981",
"a	c #D2D2D3",
"b	c #D3D2D3",
"c	c #BCCFB6",
"d	c #70C454",
"e	c #6FC454",
"f	c #BDCFB7",
"g	c #D3D3D2",
"h	c #D2D2D2",
"i	c #ABCCA0",
"j	c #76C55D",
"k	c #A7CC9C",
"l	c #D1D2D1",
"m	c #D1D1D1",
"n	c #BECFBA",
"o	c #92C880",
"p	c #6AC34E",
"q	c #62C244",
"r	c #BCCFB7",
"s	c #D2D2D1",
"t	c #D2D1D1",
"u	c #D1D1D2",
"v	c #D0D0D1",
"w	c #D0D0D0",
"x	c #D0D1D1",
"y	c #D1D1D0",
"z	c #D1D0D1",
"A	c #D0D1D0",
"B	c #D1D0D0",
"................",
".+@#$+%+&&@*+*@+",
"####=-;>>;-=####",
",#')!~~~~~~{]^'^",
"//({~~~~~~~~{(//",
"_:<~~~~~~~~~~[}|",
"__1~~~~~~~~~~1__",
"23>~~~~~~~~~~>34",
"44>~~~~~~~~~~>44",
"567~~~~~~~~~~784",
"669~~~~~~~~~~066",
"abcd~~~~~~~~ef6g",
"hhhij~~~~~~ekhhh",
"llmhnopqqporsltu",
"mmmmmmmmmmmmmmmm",
"vvmwxymyyzzAyBwm"};
