/* XPM */
static char * min_xpm[] = {
"16 16 67 1",
" 	c None",
".	c #D8D8D8",
"+	c #D7D7D8",
"@	c #D8D7D7",
"#	c #D7D7D7",
"$	c #D7D8D8",
"%	c #D7D8D7",
"&	c #D8D7D8",
"*	c #D8D8D7",
"=	c #D9D1BB",
"-	c #DDC587",
";	c #E0BB56",
">	c #E1B94C",
",	c #D6D7D7",
"'	c #D7D7D6",
")	c #DACBA2",
"!	c #E0BC5C",
"~	c #E3B539",
"{	c #DACBA1",
"]	c #D7D6D7",
"^	c #D6D6D6",
"/	c #D8D0BA",
"(	c #D5D5D5",
"_	c #D5D5D6",
":	c #DCC486",
"<	c #DCC586",
"[	c #D5D6D5",
"}	c #D6D5D6",
"|	c #D4D4D5",
"1	c #D4D5D4",
"2	c #D4D4D4",
"3	c #E1B84C",
"4	c #D3D4D3",
"5	c #D3D3D3",
"6	c #E0BA56",
"7	c #E0BA55",
"8	c #D3D4D4",
"9	c #DBC385",
"0	c #DAC486",
"a	c #D2D2D3",
"b	c #D3D2D3",
"c	c #D4CDB8",
"d	c #DFBB5B",
"e	c #D4CEB8",
"f	c #D3D3D2",
"g	c #D2D2D2",
"h	c #D7C9A3",
"i	c #DEBD63",
"j	c #D7C89F",
"k	c #D1D2D1",
"l	c #D1D1D1",
"m	c #D3CDBB",
"n	c #DAC285",
"o	c #DFBA55",
"p	c #E0B84C",
"q	c #DAC284",
"r	c #D3CDB8",
"s	c #D2D2D1",
"t	c #D2D1D1",
"u	c #D1D1D2",
"v	c #D0D0D1",
"w	c #D0D0D0",
"x	c #D0D1D1",
"y	c #D1D1D0",
"z	c #D1D0D1",
"A	c #D0D1D0",
"B	c #D1D0D0",
"................",
".+@#$+%+&&@*+*@+",
"####=-;>>;-=####",
",#')!~~~~~~!{]']",
"^^/!~~~~~~~~!/^^",
"(_:~~~~~~~~~~<[}",
"((;~~~~~~~~~~;((",
"|1>~~~~~~~~~~>12",
"223~~~~~~~~~~322",
"456~~~~~~~~~~782",
"559~~~~~~~~~~055",
"abcd~~~~~~~~de5f",
"ggghi~~~~~~djggg",
"kklgmnoppoqrsktu",
"llllllllllllllll",
"vvlwxylyyzzAyBwl"};
