/* XPM */
static char * stick_pressed_xpm[] = {
"16 16 57 1",
" 	c None",
".	c #D8D8D8",
"+	c #D7D7D8",
"@	c #D8D7D7",
"#	c #D7D7D7",
"$	c #D7D8D8",
"%	c #D7D8D7",
"&	c #D8D7D8",
"*	c #D8D8D7",
"=	c #C7C7C7",
"-	c #AAAAAA",
";	c #909090",
">	c #8A8A8A",
",	c #D6D7D7",
"'	c #D7D7D6",
")	c #B9B9BA",
"!	c #939393",
"~	c #808080",
"{	c #B9BAB9",
"]	c #D7D6D7",
"^	c #D6D6D6",
"/	c #D5D5D5",
"(	c #D5D5D6",
"_	c #D5D6D5",
":	c #D6D5D6",
"<	c #D4D4D5",
"[	c #D4D5D4",
"}	c #D4D4D4",
"|	c #D3D4D3",
"1	c #D3D3D3",
"2	c #8F8F8F",
"3	c #D3D4D4",
"4	c #A9A9A9",
"5	c #D2D2D3",
"6	c #D3D2D3",
"7	c #C3C4C4",
"8	c #929292",
"9	c #C4C5C4",
"0	c #D3D3D2",
"a	c #D2D2D2",
"b	c #B8B8B8",
"c	c #969696",
"d	c #B6B6B6",
"e	c #D1D2D1",
"f	c #D1D1D1",
"g	c #C5C6C6",
"h	c #A8A8A8",
"i	c #D2D2D1",
"j	c #D2D1D1",
"k	c #D1D1D2",
"l	c #D0D0D1",
"m	c #D0D0D0",
"n	c #D0D1D1",
"o	c #D1D1D0",
"p	c #D1D0D1",
"q	c #D0D1D0",
"r	c #D1D0D0",
"................",
".+@#$+%+&&@*+*@+",
"####=-;>>;-=####",
",#')!~~~~~~!{]']",
"^^=!~~~~~~~~!=^^",
"/(-~~~~~~~~~~-_:",
"//;~~~~~~~~~~;//",
"<[>~~~~~~~~~~>[}",
"}}>~~~~~~~~~~>}}",
"|12~~~~~~~~~~23}",
"114~~~~~~~~~~411",
"5678~~~~~~~~8910",
"aaabc~~~~~~8daaa",
"eefagh2>>2h7iejk",
"ffffffffffffffff",
"llfmnofooppqormf"};
