/* XPM */
static char *emacs[] = {
/* columns rows colors chars-per-pixel */
"48 48 165 2 ",
"   c #3A1F55",
".  c #3D1E59",
"X  c #3E205F",
"o  c #421F5F",
"O  c #41205F",
"+  c #452163",
"@  c #482267",
"#  c #472368",
"$  c #4B246C",
"%  c #4E2574",
"&  c #4F2871",
"*  c #502676",
"=  c #522975",
"-  c #522779",
";  c #592778",
":  c #55297C",
">  c #5C2B7F",
",  c #57307C",
"<  c #572C81",
"1  c #5A2B84",
"2  c #5C2F89",
"3  c #5C3485",
"4  c #5E348B",
"5  c #5F3A89",
"6  c #622E86",
"7  c #652E89",
"8  c #65328A",
"9  c #68328E",
"0  c #613B8E",
"q  c #6B2E90",
"w  c #643C91",
"e  c #703095",
"r  c #74329B",
"t  c #723A9D",
"y  c #7933A0",
"u  c #7D38A5",
"i  c #7E3DA9",
"p  c #654295",
"a  c #6A459A",
"s  c #6B4B9D",
"d  c #7545A5",
"f  c #724BA3",
"g  c #7E43AC",
"h  c #6E51A2",
"j  c #7252A6",
"k  c #7059A7",
"l  c #7857AE",
"z  c #725BA9",
"x  c #7E56B4",
"c  c #7E5AB6",
"v  c #7562AE",
"b  c #7663B0",
"n  c #7C63B6",
"m  c #7B68B6",
"M  c #7F6BBA",
"N  c #7E71BB",
"B  c #7F79BF",
"V  c #843AAE",
"C  c #893FB6",
"Z  c #8F3BBA",
"A  c #923FBE",
"S  c #854EB7",
"D  c #8D45BC",
"F  c #864DB8",
"G  c #8A4ABA",
"H  c #9142BE",
"J  c #924FBF",
"K  c #8252B5",
"L  c #805EB7",
"P  c #8954B9",
"I  c #805FB8",
"U  c #8063B9",
"Y  c #816BBC",
"T  c #8C6DBE",
"R  c #9067BE",
"E  c #916CBE",
"W  c #8172BF",
"Q  c #807ABF",
"!  c #943FC0",
"~  c #9340C0",
"^  c #945AC1",
"/  c #9A5BC4",
"(  c #996DC4",
")  c #8276C0",
"_  c #8A74C1",
"`  c #827CC3",
"'  c #8C7CC3",
"]  c #9176C2",
"[  c #9C72C5",
"{  c #957AC4",
"}  c #9A7BC5",
"|  c #A270C8",
" . c #A977CD",
".. c #8381C5",
"X. c #8C83C6",
"o. c #9282C6",
"O. c #9982C7",
"+. c #9685C8",
"@. c #9C86C8",
"#. c #948CCB",
"$. c #9C8CCB",
"%. c #9D92CD",
"&. c #A387C9",
"*. c #A884CC",
"=. c #A48BCB",
"-. c #A393CE",
";. c #AA93CF",
":. c #AF87D0",
">. c #B285D2",
",. c #A797D0",
"<. c #A49CD2",
"1. c #AC9ED3",
"2. c #B195D2",
"3. c #BF9ADA",
"4. c #A7A1D4",
"5. c #AAA4D5",
"6. c #AFA8D7",
"7. c #B3A4D6",
"8. c #BAA7D8",
"9. c #B6AFDB",
"0. c #B7AAD8",
"q. c #BBACD9",
"w. c #BCB3DD",
"e. c #BBB8DF",
"r. c #C3AADC",
"t. c #C9ABDF",
"y. c #C2B4DE",
"u. c #C1BCE0",
"i. c #CDBFE3",
"p. c #D0BEE3",
"a. c #CBC4E4",
"s. c #CEC9E7",
"d. c #D4C5E6",
"f. c #D2CAE7",
"g. c #D3C9E7",
"h. c #D0CCE8",
"j. c #DBCCEA",
"k. c #D5D0EA",
"l. c #D9D3EB",
"z. c #DBD6EC",
"x. c #DCD5EC",
"c. c #DBD3EB",
"v. c #DFDCEF",
"b. c #DEDAEE",
"n. c #E3D7EE",
"m. c #E2DAEE",
"M. c #E5E1F1",
"N. c #E7E2F2",
"B. c #EBE4F4",
"V. c #EBE9F5",
"C. c #EDEBF6",
"Z. c #EEEDF7",
"A. c #EDE9F6",
"S. c #F1E9F7",
"D. c #F3EEF8",
"F. c #F6F5FB",
"G. c #F6F2F9",
"H. c #FBFAFD",
"J. c #F9F8FC",
"K. c #FEFDFE",
"L. c white",
"P. c #FEFEFF",
"I. c #FFFFFF",
"U. c None",
"Y. c black",
/* pixels */
"U.U.U.U.U.U.U.U.U.U.U.U.U.U.U.U.U.U.U.U.U.U.U.U.U.U.U.U.U.U.U.U.U.U.U.U.U.U.U.U.U.U.U.U.U.U.U.U.",
"U.U.U.U.U.U.U.U.U.U.U.U.U.U.U.U.U.U.U.U.U.* : : - - * U.U.U.U.U.U.U.U.U.U.U.U.U.U.U.U.U.U.U.U.U.",
"U.U.U.U.U.U.U.U.U.U.U.U.U.U.U.U.U.< 2 1 4 w a s a p 5 1 < < : U.U.U.U.U.U.U.U.U.U.U.U.U.U.U.U.U.",
"U.U.U.U.U.U.U.U.U.U.U.U.U.U.: 1 2 s b B ............` ` M z w < : $ U.U.U.U.U.U.U.U.U.U.U.U.U.U.",
"U.U.U.U.U.U.U.U.U.U.U.U.- 1 0 v ` ............` ` ` ` ` ` ` ) N h : - U.U.U.U.U.U.U.U.U.U.U.U.U.",
"U.U.U.U.U.U.U.U.U.U.U.1 2 v ` ..................` ` ` ` ` ) ) ) ) N s : * U.U.U.U.U.U.U.U.U.U.U.",
"U.U.U.U.U.U.U.U.U.U.1 a ` ..............` ` ` ` ` ` ` ) ` ) ) ) W W W m 3 * U.U.U.U.U.U.U.U.U.U.",
"U.U.U.U.U.U.U.U.% 1 z ..................` ..` ` ` ` ) ` #.$.` W W W W Y M p = U.U.U.U.U.U.U.U.U.",
"U.U.U.U.U.U.U.* 1 b ................` ` ` ` ` ` <.y.m.H.P.P.H.s.' N W Y Y M a % U.U.U.U.U.U.U.U.",
"U.U.U.U.U.U.U.1 b ..............` ..` ` X.5.s.V.Z.F.F.K.P.P.P.P.N._ Y Y Y Y Y p * U.U.U.U.U.U.U.",
"U.U.U.U.U.U.1 k ..............` ..` ` ` ` ` ) ) ) ) ) ` w.P.P.P.P.7.Y Y Y Y U U 0 $ U.U.U.U.U.U.",
"U.U.U.U.U.1 p ..................` ` ` ` ) ` ` Q ) W X.<.l.P.P.P.P.a.Y Y Y Y U Y n : $ U.U.U.U.U.",
"U.U.U.U.% 2 B ..........` ..` ` X.%.4.6.9.y.h.m.A.P.P.P.P.P.P.P.P.y.Y Y Y U U U U j $ U.U.U.U.U.",
"U.U.U.U.2 z ..............` e.V.P.P.P.P.P.P.P.P.P.P.P.P.P.P.P.P.M._ Y U U U U U U U 5 $ U.U.U.U.",
"U.U.U.* 4 ` ..........` ` e.P.P.P.P.P.P.P.P.P.P.P.F.Z.M.l.f.a.1._ U U Y U U U U U U l $ U.U.Y.Y.",
"U.U.U.1 k ........` ` ` ` s.P.P.P.P.P.P.H.k.w.-.' Y Y Y Y Y Y U U Y U U U U U L L L I 3 $ Y.Y.Y.",
"U.U.U.1 B ....` ` ` ` ` ` #.J.P.P.P.P.Z.o.W W W Y Y Y Y Y Y Y U U U U U U U c U I I c f $ Y.Y.Y.",
"U.U.: a ......` ` ` ` ` Q ` <.H.P.P.P.N.W W Y Y M Y Y Y U U Y U U U U U I I I I c c c c $ U.Y.Y.",
"U.U.1 z ..` ` ` ` ` ` ) ) ) ` %.F.P.P.P.b.+.Y Y Y Y Y Y U Y U U U n I U I L L c c c c x 3 + U.U.",
"U.U.1 N ` ` ` ` ` ` ) ` ) W W W ' k.P.P.P.P.f.+.Y Y U U Y U U U U U I I I L c c c c c x a $ U.U.",
"U.U.1 ` ` ` ) ` ) ` ) W W W W W W W -.l.P.P.P.P.l.@.U M U U U I I I L L c c c c c x x x f $ U.U.",
"U.% 4 ` ` ` ` ) ) W ) ) W W W W W Y Y Y -.x.P.P.P.P.x.=.U U U I I L L c c c c x x x x x x + U.U.",
"U.* w ` ` ) ` ) ) ) W W W W W W Y Y Y ' $.,.0.m.P.P.P.P.v.=.I I U L c c c c x c x x K K S @ U.U.",
"U.% w ` ` ) ) ) ) W W W W Y Y ' 9.l.F.P.P.P.P.P.P.P.P.P.P.G.r.I c c c c c x x x x x K K S # U.U.",
"U.- w B ) ) ) ) W W W W Y =.l.P.P.P.P.P.P.P.P.P.P.F.g.7.{ L L c c c c c x x x x K K S S S $ U.U.",
"U.% w ) ) ) ) W W W W ) a.P.P.P.P.P.P.P.P.P.B.q.O.U U L L c c c c x x x x x K K K K S S S @ U.U.",
"U.% 3 ) ) ) W W W Y o.A.P.P.P.P.P.P.P.P.d.O.U U U L L L c c c c x x x x x x K K K S F F F + U.U.",
"U.U.: ) Y ) N W W W A.P.P.P.P.P.P.P.B.O.U n L U L L L c c c c c x x x x K K K K S S F G g + U.U.",
"U.U.: m W W Y W Y 5.P.P.P.P.P.P.P.N.T M U U L L L n c c c c x x x x x K K S S F G F G G t + U.U.",
"U.U.: j Y W ) M Y w.P.P.P.P.P.P.P.@.U I I I L L c c c x c x x x x K K K S S S F G G G G 6 O U.U.",
"U.U.* w Y ) M Y Y @.P.P.P.P.P.P.P.] c U U L L c c c c c x x x x K K S S S S F G G D D D $ . U.U.",
"U.U.U.- M Y M Y Y U a.P.P.P.P.P.P.B.;.U I c c c c c x x x x K K K K S S F G G G G G D i O U.U.U.",
"U.U.U.- h Y Y Y Y U Y y.H.P.P.P.P.P.P.D.g.8.=.} E U K l x S x K S G S G G G G D D D D 6 o U.U.U.",
"U.U.U.% < Y Y U Y U U U { f.P.P.P.K.P.P.K.K.P.P.P.P.P.P.K.G.D.D.B.j.r.| G G D D D D D O U.U.U.U.",
"U.U.U.U.* f U Y U U U U U U T 8.m.K.P.K.P.K.P.K.P.P.P.P.P.P.P.P.P.P.K.P.>.D H H H H 6 O U.U.U.U.",
"U.U.U.U.$ - M U U U U U L I L L L T ;.y.j.m.A.M.m.j.g.g.d.m.P.P.P.P.P.A./ D H H H V O Y.U.U.U.U.",
"U.U.U.U.U.* 0 U U n U I L L c c c c c c x x x K K K K [ r.D.P.P.P.S.3.J D H H H A $ . U.U.U.U.U.",
"U.U.U.U.U.U.* s I I I I L c c c x K x x x x x R 2.p.D.P.P.P.N.t. .D D D H H H H 6 + U.U.U.U.U.U.",
"U.U.U.U.U.U.+ % j I I I c c c c K L x E 2.i.A.P.K.B.j.r.:.J G D D D H H H H H e o U.U.U.U.U.U.U.",
"U.U.U.U.U.U.U.# * j n c c c c c U &.q.r.r.2.*.( P F G G G D G J D H H H H H r o U.U.U.U.U.U.U.U.",
"U.U.U.U.U.U.U.U.$ $ f c c x x x x x x x S S S F S G G G G D D H H H A A ! q o U.U.U.U.U.U.U.U.U.",
"U.U.U.U.U.U.U.U.U.+ $ 0 x c x x x K S S S S F S G G G D D D H H H H A A ; o U.U.U.U.U.U.U.U.U.U.",
"U.U.U.U.U.U.U.U.U.U.U.$ & f x x K K S S S S G G G G D D D H H A ! A r + o U.U.U.U.U.U.U.U.U.U.U.",
"U.U.U.U.U.U.U.U.U.U.U.U.# # , d K S S S F G G G D D D D H H A A y $ O   U.U.U.U.U.U.U.U.U.U.U.U.",
"U.U.U.U.U.U.U.U.U.U.U.U.U.U.+ $ & w d G G G G D D D D H D u 7 + O o U.U.U.U.U.U.U.U.U.U.U.U.U.U.",
"U.U.U.U.U.U.U.U.U.U.U.U.U.U.U.U.X @ @ @ = 1 8 9 9 8 > $ + o o U.Y.Y.U.U.U.U.U.U.U.U.U.U.U.U.U.U.",
"U.U.U.U.U.U.U.U.U.U.U.U.U.U.U.U.U.U.U.U.X O + O + O . . U.U.U.U.U.U.U.U.U.U.U.U.U.U.U.U.U.U.U.U.",
"U.U.U.U.U.U.U.U.U.U.U.U.U.U.U.U.U.U.U.U.U.U.U.U.U.U.U.U.U.U.U.U.U.U.U.U.U.U.U.U.U.U.U.U.U.U.U.U."
};
